<svg xmlns="http://www.w3.org/2000/svg" width="24" height="24" viewBox="0 0 24 24" fill="none">
    <path d="M15.6064 10.0882H14.3571V6.26471C14.3571 5.84412 14.0036 5.5 13.5714 5.5H10.4286C9.99643 5.5 9.64286 5.84412 9.64286 6.26471V10.0882H8.39357C7.69429 10.0882 7.34071 10.9141 7.83571 11.3959L11.4421 14.9059C11.7486 15.2041 12.2436 15.2041 12.55 14.9059L16.1564 11.3959C16.6514 10.9141 16.3057 10.0882 15.6064 10.0882ZM6.5 17.7353C6.5 18.1559 6.85357 18.5 7.28571 18.5H16.7143C17.1464 18.5 17.5 18.1559 17.5 17.7353C17.5 17.3147 17.1464 16.9706 16.7143 16.9706H7.28571C6.85357 16.9706 6.5 17.3147 6.5 17.7353Z" fill="#1F252E"/>
</svg>
