<svg width="101" height="100" viewBox="0 0 101 100" fill="none" xmlns="http://www.w3.org/2000/svg">
<g clip-path="url(#clip0_669_12985)">
<path d="M95.9016 19.3145C93.3657 19.3145 91.3027 21.3775 91.3027 23.9133C91.3027 26.4492 93.3657 28.5122 95.9016 28.5122C98.4374 28.5122 100.5 26.4492 100.5 23.9133C100.5 21.3775 98.4374 19.3145 95.9016 19.3145ZM95.9016 25.5767C94.9843 25.5767 94.2382 24.8306 94.2382 23.9133C94.2382 22.9961 94.9843 22.2499 95.9016 22.2499C96.8188 22.2499 97.565 22.9961 97.565 23.9133C97.565 24.8306 96.8188 25.5767 95.9016 25.5767Z" fill="#999999"/>
<path d="M5.09883 72.5435C2.56301 72.5435 0.5 74.6065 0.5 77.1423C0.5 79.6781 2.56301 81.7411 5.09883 81.7411C7.63464 81.7411 9.69765 79.6781 9.69765 77.1423C9.69765 74.6065 7.63464 72.5435 5.09883 72.5435ZM5.09883 78.8057C4.1816 78.8057 3.43542 78.0595 3.43542 77.1423C3.43542 76.2251 4.1816 75.4789 5.09883 75.4789C6.01605 75.4789 6.76223 76.2251 6.76223 77.1423C6.76223 78.0595 6.01605 78.8057 5.09883 78.8057Z" fill="#999999"/>
<path d="M81.9087 17.6511H84.8441V14.4221H88.073V11.4867H84.8441V8.25775H81.9087V11.4867H78.6797V14.4221H81.9087V17.6511Z" fill="#999999"/>
<path d="M23.7874 78.7078H20.852V81.9368H17.623V84.8722H20.852V88.1012H23.7874V84.8722H27.0164V81.9368H23.7874V78.7078Z" fill="#999999"/>
<path d="M81.7125 20.88H40.3258L34.0636 11.4867H9.89258V70.7822H31.7125V67.8468H13.2401L21.8996 33.2088H87.7585L79.099 67.8468H73.9826V70.7822H81.3906L91.5178 30.2734H81.7125V20.88ZM32.4926 14.4221L36.7979 20.88H12.828V14.4221H32.4926ZM19.6078 30.2734L12.828 57.392V23.8155H78.7771V30.2734H19.6078Z" fill="#999999"/>
<path d="M50.5 42.7979C42.7847 42.7979 36.5078 49.0748 36.5078 56.79C36.5078 64.5053 42.7847 70.7822 50.5 70.7822C58.2152 70.7822 64.4922 64.5053 64.4922 56.79C64.4922 49.0748 58.2152 42.7979 50.5 42.7979ZM50.5 67.8468C44.4033 67.8468 39.4432 62.8867 39.4432 56.79C39.4432 50.6933 44.4033 45.7333 50.5 45.7333C56.5967 45.7333 61.5567 50.6933 61.5567 56.79C61.5567 62.8867 56.5967 67.8468 50.5 67.8468Z" fill="#999999"/>
<path d="M70.7549 56.79C70.7549 45.6217 61.6688 36.5356 50.5005 36.5356C39.3322 36.5356 30.2461 45.6216 30.2461 56.79C30.2461 67.9585 39.3322 77.0444 50.5005 77.0444C54.3527 77.0444 57.9572 75.963 61.0265 74.0885L78.6805 91.7425L85.4527 84.9703L67.7987 67.3163C69.6735 64.2466 70.7549 60.6423 70.7549 56.79ZM33.1815 56.79C33.1815 47.2403 40.9508 39.4711 50.5005 39.4711C60.0502 39.4711 67.8195 47.2403 67.8195 56.79C67.8195 66.3398 60.0502 74.109 50.5005 74.109C40.9508 74.109 33.1815 66.3398 33.1815 56.79ZM78.6805 87.591L68.2318 77.1423L70.8527 74.5214L81.3017 84.9701L78.6805 87.591ZM68.777 72.4456L66.1561 75.0666L63.4451 72.3556C64.3962 71.5632 65.2737 70.6857 66.0661 69.7347L68.777 72.4456Z" fill="#999999"/>
<path d="M50.7147 49.065C49.4444 49.0069 48.2405 49.4568 47.3233 50.3329C46.4192 51.1965 45.9004 52.4088 45.9004 53.6589H48.8358C48.8358 53.2 49.0188 52.7728 49.3507 52.4558C49.6822 52.1392 50.1205 51.9752 50.5796 51.9975C51.4131 52.0358 52.1223 52.745 52.1607 53.5785C52.1867 54.1433 51.9292 54.6779 51.4718 55.0086C49.9438 56.1135 49.0315 57.9501 49.0315 59.9212H51.9669C51.9669 58.8893 52.4249 57.9419 53.192 57.3873C54.454 56.4746 55.1648 55.0004 55.0932 53.4437C54.9851 51.0963 53.0618 49.1728 50.7147 49.065Z" fill="#999999"/>
<path d="M49.0332 61.4867H51.9686V64.6178H49.0332V61.4867Z" fill="#999999"/>
<path d="M16.0586 16.1834H19.1897V19.1188H16.0586V16.1834Z" fill="#999999"/>
<path d="M22.3203 16.1834H25.4514V19.1188H22.3203V16.1834Z" fill="#999999"/>
<path d="M28.582 16.1834H31.7131V19.1188H28.582V16.1834Z" fill="#999999"/>
</g>
<defs>
<clipPath id="clip0_669_12985">
<rect width="100" height="100" fill="white" transform="translate(0.5)"/>
</clipPath>
</defs>
</svg>
