<svg width="14" height="14" viewBox="0 0 14 14" fill="none" xmlns="http://www.w3.org/2000/svg">
<path d="M13.3516 13.3562C13.2582 13.4481 13.1326 13.4998 13.0016 13.5C12.8688 13.4994 12.7413 13.448 12.6453 13.3562L9.94531 10.65C8.80818 11.6051 7.34621 12.0844 5.86431 11.9878C4.38242 11.8912 2.99502 11.2263 1.99147 10.1316C0.987918 9.03698 0.445708 7.59717 0.47792 6.11248C0.510132 4.62779 1.11428 3.21286 2.16436 2.16277C3.21444 1.11269 4.62938 0.508545 6.11407 0.476333C7.59876 0.444121 9.03857 0.986331 10.1332 1.98988C11.2278 2.99343 11.8928 4.38083 11.9894 5.86273C12.0859 7.34462 11.6067 8.80659 10.6516 9.94373L13.3516 12.6437C13.3988 12.6903 13.4363 12.7457 13.4619 12.8069C13.4875 12.868 13.5007 12.9337 13.5007 13C13.5007 13.0663 13.4875 13.1319 13.4619 13.1931C13.4363 13.2542 13.3988 13.3097 13.3516 13.3562ZM6.25156 11C7.19102 11 8.10939 10.7214 8.89052 10.1995C9.67165 9.67752 10.2805 8.93567 10.64 8.06772C10.9995 7.19977 11.0936 6.24471 10.9103 5.3233C10.727 4.40189 10.2746 3.55552 9.61032 2.89122C8.94602 2.22692 8.09965 1.77452 7.17824 1.59124C6.25683 1.40797 5.30176 1.50203 4.43382 1.86155C3.56587 2.22106 2.82402 2.82988 2.30208 3.61102C1.78014 4.39215 1.50156 5.31051 1.50156 6.24998C1.50322 7.50925 2.00419 8.71647 2.89463 9.60691C3.78507 10.4973 4.99229 10.9983 6.25156 11Z" fill="black" fill-opacity="0.4"/>
</svg>
