<svg width="14" height="14" viewBox="0 0 14 14" fill="none" xmlns="http://www.w3.org/2000/svg">
<path d="M13.707 0.710001C13.317 0.320001 12.687 0.320001 12.297 0.710001L7.40695 5.59L2.51695 0.700001C2.12695 0.310001 1.49695 0.310001 1.10695 0.700001C0.716953 1.09 0.716953 1.72 1.10695 2.11L5.99695 7L1.10695 11.89C0.716953 12.28 0.716953 12.91 1.10695 13.3C1.49695 13.69 2.12695 13.69 2.51695 13.3L7.40695 8.41L12.297 13.3C12.687 13.69 13.317 13.69 13.707 13.3C14.097 12.91 14.097 12.28 13.707 11.89L8.81695 7L13.707 2.11C14.087 1.73 14.087 1.09 13.707 0.710001Z" fill="#1F252E"/>
</svg>
